<?xml version="1.0" standalone="no"?>
<svg xmlns="http://www.w3.org/2000/svg" version="1.2" baseProfile="tiny" width="256" height="155" viewBox="0 0 256 155">
<rect x="0" y="0" width="256" height="155" id="0" fill="rgb(59,43,25)" fill-opacity="1" />
<line x1="100" y1="14" x2="108" y2="77" id="1" stroke="rgb(255,216,133)" stroke-width="1" fill="none" stroke-opacity="0.501961" />
<line x1="127" y1="73" x2="0" y2="66" id="2" stroke="rgb(230,168,104)" stroke-width="1" fill="none" stroke-opacity="0.501961" />
<line x1="103" y1="46" x2="106" y2="87" id="3" stroke="rgb(255,248,169)" stroke-width="1" fill="none" stroke-opacity="0.501961" />
<line x1="101" y1="85" x2="113" y2="15" id="4" stroke="rgb(255,200,124)" stroke-width="1" fill="none" stroke-opacity="0.501961" />
<line x1="56" y1="59" x2="138" y2="76" id="5" stroke="rgb(250,173,94)" stroke-width="1" fill="none" stroke-opacity="0.501961" />
<line x1="145" y1="77" x2="69" y2="72" id="6" stroke="rgb(250,174,90)" stroke-width="1" fill="none" stroke-opacity="0.501961" />
<line x1="7" y1="81" x2="69" y2="154" id="7" stroke="rgb(172,177,204)" stroke-width="1" fill="none" stroke-opacity="0.501961" />
<line x1="100" y1="23" x2="103" y2="87" id="8" stroke="rgb(255,196,114)" stroke-width="1" fill="none" stroke-opacity="0.501961" />
<line x1="41" y1="144" x2="26" y2="93" id="9" stroke="rgb(191,199,242)" stroke-width="1" fill="none" stroke-opacity="0.501961" />
<line x1="57" y1="62" x2="137" y2="78" id="10" stroke="rgb(244,168,93)" stroke-width="1" fill="none" stroke-opacity="0.501961" />
<line x1="37" y1="121" x2="9" y2="46" id="11" stroke="rgb(196,200,195)" stroke-width="1" fill="none" stroke-opacity="0.501961" />
<line x1="65" y1="153" x2="23" y2="105" id="12" stroke="rgb(181,189,228)" stroke-width="1" fill="none" stroke-opacity="0.501961" />
<line x1="46" y1="131" x2="6" y2="58" id="13" stroke="rgb(190,194,197)" stroke-width="1" fill="none" stroke-opacity="0.501961" />
<line x1="102" y1="42" x2="104" y2="84" id="14" stroke="rgb(255,232,151)" stroke-width="1" fill="none" stroke-opacity="0.501961" />
<line x1="62" y1="32" x2="131" y2="13" id="15" stroke="rgb(249,171,91)" stroke-width="1" fill="none" stroke-opacity="0.501961" />
<line x1="60" y1="154" x2="23" y2="95" id="16" stroke="rgb(180,188,224)" stroke-width="1" fill="none" stroke-opacity="0.501961" />
<line x1="44" y1="154" x2="24" y2="101" id="17" stroke="rgb(180,187,230)" stroke-width="1" fill="none" stroke-opacity="0.501961" />
<line x1="48" y1="35" x2="132" y2="21" id="18" stroke="rgb(235,156,85)" stroke-width="1" fill="none" stroke-opacity="0.501961" />
<line x1="44" y1="154" x2="3" y2="38" id="19" stroke="rgb(154,154,152)" stroke-width="1" fill="none" stroke-opacity="0.501961" />
<line x1="133" y1="31" x2="55" y2="24" id="20" stroke="rgb(242,164,90)" stroke-width="1" fill="none" stroke-opacity="0.501961" />
<line x1="129" y1="72" x2="57" y2="66" id="21" stroke="rgb(243,167,94)" stroke-width="1" fill="none" stroke-opacity="0.501961" />
<line x1="68" y1="154" x2="17" y2="94" id="22" stroke="rgb(166,172,205)" stroke-width="1" fill="none" stroke-opacity="0.501961" />
<line x1="66" y1="16" x2="133" y2="34" id="23" stroke="rgb(239,169,96)" stroke-width="1" fill="none" stroke-opacity="0.501961" />
<line x1="102" y1="22" x2="112" y2="94" id="24" stroke="rgb(245,178,103)" stroke-width="1" fill="none" stroke-opacity="0.501961" />
<line x1="99" y1="36" x2="101" y2="83" id="25" stroke="rgb(255,180,99)" stroke-width="1" fill="none" stroke-opacity="0.501961" />
<line x1="123" y1="6" x2="80" y2="92" id="26" stroke="rgb(216,145,73)" stroke-width="1" fill="none" stroke-opacity="0.501961" />
<line x1="64" y1="154" x2="0" y2="59" id="27" stroke="rgb(173,175,182)" stroke-width="1" fill="none" stroke-opacity="0.501961" />
<line x1="61" y1="154" x2="22" y2="90" id="28" stroke="rgb(178,181,210)" stroke-width="1" fill="none" stroke-opacity="0.501961" />
<line x1="57" y1="14" x2="132" y2="21" id="29" stroke="rgb(235,159,88)" stroke-width="1" fill="none" stroke-opacity="0.501961" />
<line x1="8" y1="58" x2="129" y2="81" id="30" stroke="rgb(207,141,83)" stroke-width="1" fill="none" stroke-opacity="0.501961" />
<line x1="49" y1="76" x2="133" y2="76" id="31" stroke="rgb(208,139,74)" stroke-width="1" fill="none" stroke-opacity="0.501961" />
<line x1="44" y1="58" x2="123" y2="69" id="32" stroke="rgb(224,149,84)" stroke-width="1" fill="none" stroke-opacity="0.501961" />
<line x1="61" y1="152" x2="3" y2="58" id="33" stroke="rgb(162,161,166)" stroke-width="1" fill="none" stroke-opacity="0.501961" />
<line x1="57" y1="72" x2="125" y2="78" id="34" stroke="rgb(242,165,92)" stroke-width="1" fill="none" stroke-opacity="0.501961" />
<line x1="140" y1="71" x2="47" y2="55" id="35" stroke="rgb(218,142,72)" stroke-width="1" fill="none" stroke-opacity="0.501961" />
<line x1="129" y1="28" x2="61" y2="20" id="36" stroke="rgb(231,156,83)" stroke-width="1" fill="none" stroke-opacity="0.501961" />
<line x1="106" y1="12" x2="107" y2="83" id="37" stroke="rgb(225,163,97)" stroke-width="1" fill="none" stroke-opacity="0.501961" />
<line x1="49" y1="151" x2="22" y2="78" id="38" stroke="rgb(150,154,180)" stroke-width="1" fill="none" stroke-opacity="0.501961" />
<line x1="255" y1="154" x2="255" y2="0" id="39" stroke="rgb(0,0,0)" stroke-width="1" fill="none" stroke-opacity="0.501961" />
<line x1="214" y1="0" x2="201" y2="154" id="40" stroke="rgb(0,0,0)" stroke-width="1" fill="none" stroke-opacity="0.501961" />
<line x1="130" y1="12" x2="68" y2="23" id="41" stroke="rgb(230,159,88)" stroke-width="1" fill="none" stroke-opacity="0.501961" />
<line x1="47" y1="154" x2="11" y2="68" id="42" stroke="rgb(146,149,166)" stroke-width="1" fill="none" stroke-opacity="0.501961" />
<line x1="5" y1="53" x2="50" y2="154" id="43" stroke="rgb(143,147,149)" stroke-width="1" fill="none" stroke-opacity="0.501961" />
<line x1="254" y1="0" x2="253" y2="154" id="44" stroke="rgb(0,0,0)" stroke-width="1" fill="none" stroke-opacity="0.501961" />
<line x1="129" y1="23" x2="58" y2="24" id="45" stroke="rgb(219,148,81)" stroke-width="1" fill="none" stroke-opacity="0.501961" />
<line x1="254" y1="154" x2="253" y2="0" id="46" stroke="rgb(0,0,0)" stroke-width="1" fill="none" stroke-opacity="0.501961" />
<line x1="252" y1="154" x2="252" y2="0" id="47" stroke="rgb(0,0,0)" stroke-width="1" fill="none" stroke-opacity="0.501961" />
<line x1="251" y1="0" x2="242" y2="154" id="48" stroke="rgb(0,0,0)" stroke-width="1" fill="none" stroke-opacity="0.501961" />
<line x1="133" y1="19" x2="55" y2="11" id="49" stroke="rgb(214,138,75)" stroke-width="1" fill="none" stroke-opacity="0.501961" />
<line x1="221" y1="0" x2="203" y2="154" id="50" stroke="rgb(0,0,0)" stroke-width="1" fill="none" stroke-opacity="0.501961" />
<line x1="126" y1="10" x2="86" y2="83" id="51" stroke="rgb(234,163,88)" stroke-width="1" fill="none" stroke-opacity="0.501961" />
<line x1="242" y1="0" x2="251" y2="154" id="52" stroke="rgb(0,0,0)" stroke-width="1" fill="none" stroke-opacity="0.501961" />
<line x1="7" y1="50" x2="32" y2="125" id="53" stroke="rgb(140,139,127)" stroke-width="1" fill="none" stroke-opacity="0.501961" />
<line x1="235" y1="0" x2="248" y2="154" id="54" stroke="rgb(0,0,0)" stroke-width="1" fill="none" stroke-opacity="0.501961" />
<line x1="224" y1="0" x2="205" y2="154" id="55" stroke="rgb(0,0,0)" stroke-width="1" fill="none" stroke-opacity="0.501961" />
<line x1="147" y1="70" x2="51" y2="68" id="56" stroke="rgb(202,135,65)" stroke-width="1" fill="none" stroke-opacity="0.501961" />
<line x1="232" y1="0" x2="239" y2="154" id="57" stroke="rgb(0,0,0)" stroke-width="1" fill="none" stroke-opacity="0.501961" />
<line x1="57" y1="27" x2="131" y2="34" id="58" stroke="rgb(224,152,82)" stroke-width="1" fill="none" stroke-opacity="0.501961" />
<line x1="45" y1="24" x2="134" y2="33" id="59" stroke="rgb(211,145,81)" stroke-width="1" fill="none" stroke-opacity="0.501961" />
<line x1="215" y1="154" x2="228" y2="0" id="60" stroke="rgb(0,0,0)" stroke-width="1" fill="none" stroke-opacity="0.501961" />
<line x1="51" y1="70" x2="127" y2="74" id="61" stroke="rgb(234,160,92)" stroke-width="1" fill="none" stroke-opacity="0.501961" />
<line x1="237" y1="154" x2="231" y2="3" id="62" stroke="rgb(0,0,0)" stroke-width="1" fill="none" stroke-opacity="0.501961" />
<line x1="230" y1="0" x2="217" y2="154" id="63" stroke="rgb(0,0,0)" stroke-width="1" fill="none" stroke-opacity="0.501961" />
<line x1="219" y1="149" x2="231" y2="0" id="64" stroke="rgb(0,0,0)" stroke-width="1" fill="none" stroke-opacity="0.501961" />
<line x1="61" y1="12" x2="131" y2="26" id="65" stroke="rgb(223,152,84)" stroke-width="1" fill="none" stroke-opacity="0.501961" />
<line x1="112" y1="87" x2="101" y2="9" id="66" stroke="rgb(195,139,77)" stroke-width="1" fill="none" stroke-opacity="0.501961" />
<line x1="70" y1="78" x2="141" y2="76" id="67" stroke="rgb(187,123,59)" stroke-width="1" fill="none" stroke-opacity="0.501961" />
<line x1="200" y1="154" x2="213" y2="0" id="68" stroke="rgb(0,0,0)" stroke-width="1" fill="none" stroke-opacity="0.501961" />
<line x1="24" y1="106" x2="10" y2="48" id="69" stroke="rgb(126,125,101)" stroke-width="1" fill="none" stroke-opacity="0.501961" />
<line x1="220" y1="154" x2="250" y2="0" id="70" stroke="rgb(0,0,0)" stroke-width="1" fill="none" stroke-opacity="0.501961" />
<line x1="127" y1="81" x2="65" y2="74" id="71" stroke="rgb(223,145,76)" stroke-width="1" fill="none" stroke-opacity="0.501961" />
<line x1="116" y1="65" x2="0" y2="63" id="72" stroke="rgb(188,136,86)" stroke-width="1" fill="none" stroke-opacity="0.501961" />
<line x1="234" y1="0" x2="243" y2="154" id="73" stroke="rgb(0,0,0)" stroke-width="1" fill="none" stroke-opacity="0.501961" />
<line x1="121" y1="74" x2="52" y2="60" id="74" stroke="rgb(224,155,90)" stroke-width="1" fill="none" stroke-opacity="0.501961" />
<line x1="243" y1="2" x2="219" y2="154" id="75" stroke="rgb(0,0,0)" stroke-width="1" fill="none" stroke-opacity="0.501961" />
<line x1="237" y1="152" x2="193" y2="0" id="76" stroke="rgb(0,0,0)" stroke-width="1" fill="none" stroke-opacity="0.501961" />
<line x1="212" y1="5" x2="197" y2="154" id="77" stroke="rgb(0,0,0)" stroke-width="1" fill="none" stroke-opacity="0.501961" />
<line x1="70" y1="154" x2="19" y2="94" id="78" stroke="rgb(162,161,189)" stroke-width="1" fill="none" stroke-opacity="0.501961" />
<line x1="60" y1="17" x2="115" y2="20" id="79" stroke="rgb(212,142,77)" stroke-width="1" fill="none" stroke-opacity="0.501961" />
<line x1="227" y1="154" x2="231" y2="15" id="80" stroke="rgb(0,0,0)" stroke-width="1" fill="none" stroke-opacity="0.501961" />
<line x1="202" y1="154" x2="216" y2="0" id="81" stroke="rgb(0,0,0)" stroke-width="1" fill="none" stroke-opacity="0.501961" />
<line x1="207" y1="154" x2="227" y2="0" id="82" stroke="rgb(0,0,0)" stroke-width="1" fill="none" stroke-opacity="0.501961" />
<line x1="106" y1="153" x2="119" y2="115" id="83" stroke="rgb(150,158,150)" stroke-width="1" fill="none" stroke-opacity="0.501961" />
<line x1="241" y1="154" x2="233" y2="0" id="84" stroke="rgb(0,0,0)" stroke-width="1" fill="none" stroke-opacity="0.501961" />
</svg>