<?xml version="1.0" standalone="no"?>
<svg xmlns="http://www.w3.org/2000/svg" version="1.2" baseProfile="tiny" width="256" height="179" viewBox="0 0 256 179">
<rect x="0" y="0" width="256" height="179" id="0" fill="rgb(107,62,28)" fill-opacity="1" />
<path d="M23 1 Q 253 86 15 30" id="1" stroke="rgb(255,184,36)" stroke-width="1" fill="none" stroke-opacity="0.501961" />
<path d="M255 1 Q 33 175 255 176" id="2" stroke="rgb(0,0,0)" stroke-width="1" fill="none" stroke-opacity="0.501961" />
<path d="M33 8 Q 208 112 30 10" id="3" stroke="rgb(255,192,45)" stroke-width="1" fill="none" stroke-opacity="0.501961" />
<path d="M255 172 Q 26 0 255 4" id="4" stroke="rgb(0,0,0)" stroke-width="1" fill="none" stroke-opacity="0.501961" />
<path d="M255 7 Q 64 0 234 178" id="5" stroke="rgb(0,0,0)" stroke-width="1" fill="none" stroke-opacity="0.501961" />
<path d="M255 41 Q 15 36 255 79" id="6" stroke="rgb(0,0,0)" stroke-width="1" fill="none" stroke-opacity="0.501961" />
<path d="M13 167 Q 228 122 15 167" id="7" stroke="rgb(255,146,72)" stroke-width="1" fill="none" stroke-opacity="0.501961" />
<path d="M255 95 Q 27 35 255 8" id="8" stroke="rgb(0,0,0)" stroke-width="1" fill="none" stroke-opacity="0.501961" />
<path d="M45 178 Q 195 135 80 166" id="9" stroke="rgb(255,239,18)" stroke-width="1" fill="none" stroke-opacity="0.501961" />
<path d="M254 174 Q 79 178 218 2" id="10" stroke="rgb(0,0,0)" stroke-width="1" fill="none" stroke-opacity="0.501961" />
<path d="M23 145 Q 239 173 22 115" id="11" stroke="rgb(255,189,47)" stroke-width="1" fill="none" stroke-opacity="0.501961" />
<path d="M255 125 Q 16 178 255 122" id="12" stroke="rgb(0,0,0)" stroke-width="1" fill="none" stroke-opacity="0.501961" />
<path d="M255 162 Q 18 144 255 160" id="13" stroke="rgb(0,0,0)" stroke-width="1" fill="none" stroke-opacity="0.501961" />
<path d="M42 160 Q 242 114 1 123" id="14" stroke="rgb(255,185,47)" stroke-width="1" fill="none" stroke-opacity="0.501961" />
<path d="M255 97 Q 19 172 255 113" id="15" stroke="rgb(0,0,0)" stroke-width="1" fill="none" stroke-opacity="0.501961" />
<path d="M255 9 Q 28 41 255 97" id="16" stroke="rgb(0,0,0)" stroke-width="1" fill="none" stroke-opacity="0.501961" />
<path d="M38 30 Q 255 39 2 59" id="17" stroke="rgb(255,172,51)" stroke-width="1" fill="none" stroke-opacity="0.501961" />
</svg>