<?xml version="1.0" standalone="no"?>
<svg xmlns="http://www.w3.org/2000/svg" version="1.2" baseProfile="tiny" width="256" height="170" viewBox="0 0 256 170">
<rect x="0" y="0" width="256" height="170" id="0" fill="rgb(87,50,29)" fill-opacity="1" />
<line x1="0" y1="18" x2="12" y2="82" id="1" stroke="rgb(255,182,114)" stroke-width="1" fill="none" stroke-opacity="0.501961" />
<line x1="151" y1="22" x2="139" y2="85" id="2" stroke="rgb(255,171,121)" stroke-width="1" fill="none" stroke-opacity="0.501961" />
<line x1="197" y1="149" x2="255" y2="150" id="3" stroke="rgb(255,186,84)" stroke-width="1" fill="none" stroke-opacity="0.501961" />
<line x1="14" y1="79" x2="1" y2="18" id="4" stroke="rgb(255,191,123)" stroke-width="1" fill="none" stroke-opacity="0.501961" />
<line x1="14" y1="154" x2="158" y2="167" id="5" stroke="rgb(0,0,0)" stroke-width="1" fill="none" stroke-opacity="0.501961" />
<line x1="142" y1="88" x2="189" y2="20" id="6" stroke="rgb(255,171,116)" stroke-width="1" fill="none" stroke-opacity="0.501961" />
<line x1="15" y1="152" x2="154" y2="166" id="7" stroke="rgb(0,0,0)" stroke-width="1" fill="none" stroke-opacity="0.501961" />
<line x1="178" y1="136" x2="0" y2="129" id="8" stroke="rgb(0,0,0)" stroke-width="1" fill="none" stroke-opacity="0.501961" />
<line x1="148" y1="84" x2="145" y2="22" id="9" stroke="rgb(255,182,135)" stroke-width="1" fill="none" stroke-opacity="0.501961" />
<line x1="220" y1="169" x2="255" y2="169" id="10" stroke="rgb(255,201,85)" stroke-width="1" fill="none" stroke-opacity="0.501961" />
<line x1="199" y1="139" x2="0" y2="131" id="11" stroke="rgb(0,0,0)" stroke-width="1" fill="none" stroke-opacity="0.501961" />
<line x1="146" y1="87" x2="147" y2="8" id="12" stroke="rgb(255,152,111)" stroke-width="1" fill="none" stroke-opacity="0.501961" />
<line x1="11" y1="90" x2="0" y2="26" id="13" stroke="rgb(255,153,83)" stroke-width="1" fill="none" stroke-opacity="0.501961" />
<line x1="196" y1="138" x2="0" y2="130" id="14" stroke="rgb(0,0,0)" stroke-width="1" fill="none" stroke-opacity="0.501961" />
<line x1="181" y1="159" x2="14" y2="159" id="15" stroke="rgb(0,0,0)" stroke-width="1" fill="none" stroke-opacity="0.501961" />
<line x1="0" y1="55" x2="69" y2="30" id="16" stroke="rgb(253,126,76)" stroke-width="1" fill="none" stroke-opacity="0.501961" />
<line x1="150" y1="79" x2="142" y2="19" id="17" stroke="rgb(251,150,104)" stroke-width="1" fill="none" stroke-opacity="0.501961" />
<line x1="0" y1="128" x2="197" y2="135" id="18" stroke="rgb(0,0,0)" stroke-width="1" fill="none" stroke-opacity="0.501961" />
<line x1="63" y1="128" x2="191" y2="133" id="19" stroke="rgb(0,0,0)" stroke-width="1" fill="none" stroke-opacity="0.501961" />
<line x1="9" y1="75" x2="3" y2="14" id="20" stroke="rgb(255,167,105)" stroke-width="1" fill="none" stroke-opacity="0.501961" />
<line x1="146" y1="17" x2="145" y2="88" id="21" stroke="rgb(255,151,108)" stroke-width="1" fill="none" stroke-opacity="0.501961" />
<line x1="144" y1="26" x2="112" y2="58" id="22" stroke="rgb(255,200,144)" stroke-width="1" fill="none" stroke-opacity="0.501961" />
<line x1="151" y1="165" x2="4" y2="148" id="23" stroke="rgb(0,0,0)" stroke-width="1" fill="none" stroke-opacity="0.501961" />
<line x1="152" y1="164" x2="0" y2="146" id="24" stroke="rgb(0,0,0)" stroke-width="1" fill="none" stroke-opacity="0.501961" />
<line x1="152" y1="11" x2="140" y2="89" id="25" stroke="rgb(230,130,87)" stroke-width="1" fill="none" stroke-opacity="0.501961" />
<line x1="5" y1="145" x2="158" y2="163" id="26" stroke="rgb(0,0,0)" stroke-width="1" fill="none" stroke-opacity="0.501961" />
<line x1="210" y1="39" x2="210" y2="87" id="27" stroke="rgb(255,165,108)" stroke-width="1" fill="none" stroke-opacity="0.501961" />
<line x1="219" y1="169" x2="255" y2="160" id="28" stroke="rgb(255,166,56)" stroke-width="1" fill="none" stroke-opacity="0.501961" />
<line x1="156" y1="20" x2="109" y2="56" id="29" stroke="rgb(255,183,129)" stroke-width="1" fill="none" stroke-opacity="0.501961" />
<line x1="157" y1="10" x2="137" y2="82" id="30" stroke="rgb(234,132,87)" stroke-width="1" fill="none" stroke-opacity="0.501961" />
<line x1="219" y1="110" x2="231" y2="65" id="31" stroke="rgb(255,162,99)" stroke-width="1" fill="none" stroke-opacity="0.501961" />
<line x1="0" y1="14" x2="13" y2="81" id="32" stroke="rgb(255,158,101)" stroke-width="1" fill="none" stroke-opacity="0.501961" />
<line x1="176" y1="150" x2="249" y2="149" id="33" stroke="rgb(255,159,87)" stroke-width="1" fill="none" stroke-opacity="0.501961" />
<line x1="153" y1="132" x2="0" y2="119" id="34" stroke="rgb(0,0,2)" stroke-width="1" fill="none" stroke-opacity="0.501961" />
<line x1="141" y1="88" x2="192" y2="21" id="35" stroke="rgb(255,145,95)" stroke-width="1" fill="none" stroke-opacity="0.501961" />
<line x1="187" y1="147" x2="0" y2="114" id="36" stroke="rgb(0,0,4)" stroke-width="1" fill="none" stroke-opacity="0.501961" />
<line x1="179" y1="0" x2="167" y2="65" id="37" stroke="rgb(255,133,71)" stroke-width="1" fill="none" stroke-opacity="0.501961" />
<line x1="14" y1="75" x2="0" y2="10" id="38" stroke="rgb(255,152,102)" stroke-width="1" fill="none" stroke-opacity="0.501961" />
<line x1="17" y1="156" x2="156" y2="168" id="39" stroke="rgb(0,0,0)" stroke-width="1" fill="none" stroke-opacity="0.501961" />
<line x1="8" y1="168" x2="174" y2="133" id="40" stroke="rgb(0,0,7)" stroke-width="1" fill="none" stroke-opacity="0.501961" />
<line x1="182" y1="21" x2="141" y2="91" id="41" stroke="rgb(255,143,91)" stroke-width="1" fill="none" stroke-opacity="0.501961" />
<line x1="0" y1="117" x2="168" y2="131" id="42" stroke="rgb(0,0,3)" stroke-width="1" fill="none" stroke-opacity="0.501961" />
<line x1="105" y1="60" x2="151" y2="26" id="43" stroke="rgb(255,179,128)" stroke-width="1" fill="none" stroke-opacity="0.501961" />
<line x1="147" y1="79" x2="189" y2="18" id="44" stroke="rgb(255,147,95)" stroke-width="1" fill="none" stroke-opacity="0.501961" />
<line x1="151" y1="161" x2="0" y2="143" id="45" stroke="rgb(0,0,0)" stroke-width="1" fill="none" stroke-opacity="0.501961" />
<line x1="192" y1="140" x2="69" y2="136" id="46" stroke="rgb(0,0,0)" stroke-width="1" fill="none" stroke-opacity="0.501961" />
<line x1="255" y1="169" x2="223" y2="164" id="47" stroke="rgb(255,191,83)" stroke-width="1" fill="none" stroke-opacity="0.501961" />
<line x1="136" y1="79" x2="143" y2="17" id="48" stroke="rgb(255,143,87)" stroke-width="1" fill="none" stroke-opacity="0.501961" />
<line x1="108" y1="169" x2="109" y2="61" id="49" stroke="rgb(0,0,0)" stroke-width="1" fill="none" stroke-opacity="0.501961" />
<line x1="181" y1="0" x2="106" y2="57" id="50" stroke="rgb(255,155,101)" stroke-width="1" fill="none" stroke-opacity="0.501961" />
<line x1="207" y1="37" x2="216" y2="115" id="51" stroke="rgb(234,139,91)" stroke-width="1" fill="none" stroke-opacity="0.501961" />
<line x1="13" y1="157" x2="152" y2="169" id="52" stroke="rgb(0,0,3)" stroke-width="1" fill="none" stroke-opacity="0.501961" />
<line x1="0" y1="22" x2="10" y2="77" id="53" stroke="rgb(255,168,105)" stroke-width="1" fill="none" stroke-opacity="0.501961" />
<line x1="0" y1="29" x2="6" y2="69" id="54" stroke="rgb(255,172,87)" stroke-width="1" fill="none" stroke-opacity="0.501961" />
<line x1="255" y1="152" x2="215" y2="150" id="55" stroke="rgb(255,148,34)" stroke-width="1" fill="none" stroke-opacity="0.501961" />
<line x1="206" y1="91" x2="215" y2="25" id="56" stroke="rgb(255,135,81)" stroke-width="1" fill="none" stroke-opacity="0.501961" />
<line x1="168" y1="31" x2="159" y2="68" id="57" stroke="rgb(255,166,113)" stroke-width="1" fill="none" stroke-opacity="0.501961" />
<line x1="195" y1="128" x2="27" y2="169" id="58" stroke="rgb(0,2,10)" stroke-width="1" fill="none" stroke-opacity="0.501961" />
<line x1="245" y1="147" x2="179" y2="150" id="59" stroke="rgb(240,167,119)" stroke-width="1" fill="none" stroke-opacity="0.501961" />
<line x1="152" y1="79" x2="140" y2="22" id="60" stroke="rgb(214,127,85)" stroke-width="1" fill="none" stroke-opacity="0.501961" />
<line x1="110" y1="162" x2="110" y2="68" id="61" stroke="rgb(0,0,0)" stroke-width="1" fill="none" stroke-opacity="0.501961" />
<line x1="168" y1="133" x2="23" y2="128" id="62" stroke="rgb(0,0,1)" stroke-width="1" fill="none" stroke-opacity="0.501961" />
<line x1="200" y1="104" x2="214" y2="48" id="63" stroke="rgb(233,125,77)" stroke-width="1" fill="none" stroke-opacity="0.501961" />
<line x1="68" y1="8" x2="97" y2="40" id="64" stroke="rgb(255,176,123)" stroke-width="1" fill="none" stroke-opacity="0.501961" />
<line x1="165" y1="161" x2="23" y2="144" id="65" stroke="rgb(0,0,0)" stroke-width="1" fill="none" stroke-opacity="0.501961" />
<line x1="223" y1="152" x2="255" y2="153" id="66" stroke="rgb(255,163,44)" stroke-width="1" fill="none" stroke-opacity="0.501961" />
<line x1="198" y1="151" x2="143" y2="150" id="67" stroke="rgb(254,158,108)" stroke-width="1" fill="none" stroke-opacity="0.501961" />
<line x1="127" y1="126" x2="0" y2="108" id="68" stroke="rgb(0,0,8)" stroke-width="1" fill="none" stroke-opacity="0.501961" />
<line x1="21" y1="160" x2="143" y2="169" id="69" stroke="rgb(0,0,7)" stroke-width="1" fill="none" stroke-opacity="0.501961" />
<line x1="1" y1="77" x2="50" y2="32" id="70" stroke="rgb(255,131,79)" stroke-width="1" fill="none" stroke-opacity="0.501961" />
<line x1="255" y1="155" x2="223" y2="155" id="71" stroke="rgb(255,180,58)" stroke-width="1" fill="none" stroke-opacity="0.501961" />
<line x1="217" y1="169" x2="255" y2="167" id="72" stroke="rgb(255,160,65)" stroke-width="1" fill="none" stroke-opacity="0.501961" />
<line x1="183" y1="98" x2="25" y2="119" id="73" stroke="rgb(0,6,16)" stroke-width="1" fill="none" stroke-opacity="0.501961" />
<line x1="105" y1="14" x2="115" y2="59" id="74" stroke="rgb(241,148,93)" stroke-width="1" fill="none" stroke-opacity="0.501961" />
<line x1="85" y1="54" x2="118" y2="0" id="75" stroke="rgb(255,129,71)" stroke-width="1" fill="none" stroke-opacity="0.501961" />
<line x1="166" y1="73" x2="178" y2="20" id="76" stroke="rgb(255,147,88)" stroke-width="1" fill="none" stroke-opacity="0.501961" />
<line x1="206" y1="38" x2="218" y2="113" id="77" stroke="rgb(228,138,94)" stroke-width="1" fill="none" stroke-opacity="0.501961" />
<line x1="63" y1="28" x2="8" y2="61" id="78" stroke="rgb(255,122,73)" stroke-width="1" fill="none" stroke-opacity="0.501961" />
<line x1="141" y1="101" x2="146" y2="46" id="79" stroke="rgb(173,107,79)" stroke-width="1" fill="none" stroke-opacity="0.501961" />
<line x1="109" y1="33" x2="40" y2="38" id="80" stroke="rgb(254,123,66)" stroke-width="1" fill="none" stroke-opacity="0.501961" />
<line x1="0" y1="124" x2="133" y2="112" id="81" stroke="rgb(0,0,10)" stroke-width="1" fill="none" stroke-opacity="0.501961" />
<line x1="117" y1="62" x2="107" y2="2" id="82" stroke="rgb(248,154,101)" stroke-width="1" fill="none" stroke-opacity="0.501961" />
<line x1="0" y1="102" x2="171" y2="147" id="83" stroke="rgb(0,0,4)" stroke-width="1" fill="none" stroke-opacity="0.501961" />
<line x1="222" y1="121" x2="205" y2="40" id="84" stroke="rgb(236,130,80)" stroke-width="1" fill="none" stroke-opacity="0.501961" />
<line x1="223" y1="159" x2="255" y2="162" id="85" stroke="rgb(255,164,41)" stroke-width="1" fill="none" stroke-opacity="0.501961" />
<line x1="149" y1="16" x2="143" y2="79" id="86" stroke="rgb(225,132,90)" stroke-width="1" fill="none" stroke-opacity="0.501961" />
<line x1="24" y1="128" x2="142" y2="112" id="87" stroke="rgb(0,0,10)" stroke-width="1" fill="none" stroke-opacity="0.501961" />
<line x1="0" y1="127" x2="130" y2="113" id="88" stroke="rgb(0,0,8)" stroke-width="1" fill="none" stroke-opacity="0.501961" />
<line x1="162" y1="140" x2="20" y2="157" id="89" stroke="rgb(0,0,0)" stroke-width="1" fill="none" stroke-opacity="0.501961" />
<line x1="176" y1="21" x2="157" y2="69" id="90" stroke="rgb(255,145,92)" stroke-width="1" fill="none" stroke-opacity="0.501961" />
<line x1="145" y1="37" x2="149" y2="82" id="91" stroke="rgb(203,127,95)" stroke-width="1" fill="none" stroke-opacity="0.501961" />
<line x1="145" y1="17" x2="136" y2="87" id="92" stroke="rgb(255,146,92)" stroke-width="1" fill="none" stroke-opacity="0.501961" />
<line x1="117" y1="0" x2="76" y2="68" id="93" stroke="rgb(247,115,61)" stroke-width="1" fill="none" stroke-opacity="0.501961" />
<line x1="223" y1="103" x2="226" y2="65" id="94" stroke="rgb(255,156,101)" stroke-width="1" fill="none" stroke-opacity="0.501961" />
<line x1="74" y1="69" x2="115" y2="0" id="95" stroke="rgb(251,116,62)" stroke-width="1" fill="none" stroke-opacity="0.501961" />
<line x1="248" y1="159" x2="222" y2="163" id="96" stroke="rgb(255,172,50)" stroke-width="1" fill="none" stroke-opacity="0.501961" />
<line x1="127" y1="126" x2="5" y2="116" id="97" stroke="rgb(0,1,10)" stroke-width="1" fill="none" stroke-opacity="0.501961" />
<line x1="111" y1="58" x2="121" y2="42" id="98" stroke="rgb(255,255,230)" stroke-width="1" fill="none" stroke-opacity="0.501961" />
<line x1="89" y1="41" x2="69" y2="0" id="99" stroke="rgb(249,146,99)" stroke-width="1" fill="none" stroke-opacity="0.501961" />
<line x1="121" y1="33" x2="28" y2="40" id="100" stroke="rgb(231,107,58)" stroke-width="1" fill="none" stroke-opacity="0.501961" />
<line x1="41" y1="73" x2="37" y2="108" id="101" stroke="rgb(255,161,108)" stroke-width="1" fill="none" stroke-opacity="0.501961" />
<line x1="71" y1="13" x2="99" y2="38" id="102" stroke="rgb(255,155,111)" stroke-width="1" fill="none" stroke-opacity="0.501961" />
<line x1="221" y1="118" x2="199" y2="66" id="103" stroke="rgb(246,140,84)" stroke-width="1" fill="none" stroke-opacity="0.501961" />
<line x1="238" y1="30" x2="235" y2="113" id="104" stroke="rgb(220,116,68)" stroke-width="1" fill="none" stroke-opacity="0.501961" />
<line x1="23" y1="117" x2="172" y2="91" id="105" stroke="rgb(0,10,27)" stroke-width="1" fill="none" stroke-opacity="0.501961" />
<line x1="109" y1="169" x2="108" y2="69" id="106" stroke="rgb(0,0,0)" stroke-width="1" fill="none" stroke-opacity="0.501961" />
<line x1="131" y1="169" x2="13" y2="161" id="107" stroke="rgb(0,5,20)" stroke-width="1" fill="none" stroke-opacity="0.501961" />
<line x1="56" y1="103" x2="155" y2="147" id="108" stroke="rgb(0,0,7)" stroke-width="1" fill="none" stroke-opacity="0.501961" />
<line x1="255" y1="165" x2="218" y2="159" id="109" stroke="rgb(255,133,29)" stroke-width="1" fill="none" stroke-opacity="0.501961" />
<line x1="255" y1="154" x2="221" y2="153" id="110" stroke="rgb(255,122,16)" stroke-width="1" fill="none" stroke-opacity="0.501961" />
<line x1="86" y1="21" x2="0" y2="66" id="111" stroke="rgb(229,110,61)" stroke-width="1" fill="none" stroke-opacity="0.501961" />
<line x1="141" y1="59" x2="139" y2="86" id="112" stroke="rgb(255,190,138)" stroke-width="1" fill="none" stroke-opacity="0.501961" />
<line x1="153" y1="76" x2="138" y2="25" id="113" stroke="rgb(190,107,66)" stroke-width="1" fill="none" stroke-opacity="0.501961" />
<line x1="19" y1="72" x2="0" y2="28" id="114" stroke="rgb(255,155,96)" stroke-width="1" fill="none" stroke-opacity="0.501961" />
<line x1="10" y1="142" x2="140" y2="156" id="115" stroke="rgb(0,0,5)" stroke-width="1" fill="none" stroke-opacity="0.501961" />
<line x1="34" y1="56" x2="52" y2="22" id="116" stroke="rgb(255,137,87)" stroke-width="1" fill="none" stroke-opacity="0.501961" />
<line x1="111" y1="169" x2="111" y2="71" id="117" stroke="rgb(0,0,0)" stroke-width="1" fill="none" stroke-opacity="0.501961" />
<line x1="72" y1="11" x2="106" y2="55" id="118" stroke="rgb(224,130,90)" stroke-width="1" fill="none" stroke-opacity="0.501961" />
<line x1="164" y1="98" x2="37" y2="115" id="119" stroke="rgb(0,10,22)" stroke-width="1" fill="none" stroke-opacity="0.501961" />
<line x1="0" y1="132" x2="100" y2="136" id="120" stroke="rgb(0,0,6)" stroke-width="1" fill="none" stroke-opacity="0.501961" />
<line x1="210" y1="47" x2="209" y2="93" id="121" stroke="rgb(216,114,70)" stroke-width="1" fill="none" stroke-opacity="0.501961" />
<line x1="5" y1="81" x2="68" y2="169" id="122" stroke="rgb(0,0,0)" stroke-width="1" fill="none" stroke-opacity="0.501961" />
<line x1="255" y1="166" x2="219" y2="163" id="123" stroke="rgb(255,147,47)" stroke-width="1" fill="none" stroke-opacity="0.501961" />
<line x1="166" y1="36" x2="152" y2="74" id="124" stroke="rgb(228,122,66)" stroke-width="1" fill="none" stroke-opacity="0.501961" />
<line x1="29" y1="169" x2="10" y2="85" id="125" stroke="rgb(0,0,1)" stroke-width="1" fill="none" stroke-opacity="0.501961" />
<line x1="92" y1="41" x2="68" y2="2" id="126" stroke="rgb(222,132,91)" stroke-width="1" fill="none" stroke-opacity="0.501961" />
<line x1="0" y1="34" x2="4" y2="68" id="127" stroke="rgb(255,159,76)" stroke-width="1" fill="none" stroke-opacity="0.501961" />
<line x1="169" y1="72" x2="162" y2="35" id="128" stroke="rgb(255,147,92)" stroke-width="1" fill="none" stroke-opacity="0.501961" />
<line x1="181" y1="138" x2="92" y2="159" id="129" stroke="rgb(0,0,0)" stroke-width="1" fill="none" stroke-opacity="0.501961" />
<line x1="112" y1="70" x2="112" y2="158" id="130" stroke="rgb(0,0,0)" stroke-width="1" fill="none" stroke-opacity="0.501961" />
<line x1="224" y1="147" x2="255" y2="149" id="131" stroke="rgb(255,208,147)" stroke-width="1" fill="none" stroke-opacity="0.501961" />
<line x1="27" y1="152" x2="133" y2="163" id="132" stroke="rgb(0,0,0)" stroke-width="1" fill="none" stroke-opacity="0.501961" />
<line x1="243" y1="39" x2="237" y2="108" id="133" stroke="rgb(206,107,60)" stroke-width="1" fill="none" stroke-opacity="0.501961" />
<line x1="157" y1="15" x2="111" y2="60" id="134" stroke="rgb(253,154,104)" stroke-width="1" fill="none" stroke-opacity="0.501961" />
<line x1="94" y1="22" x2="80" y2="68" id="135" stroke="rgb(249,124,67)" stroke-width="1" fill="none" stroke-opacity="0.501961" />
<line x1="180" y1="26" x2="169" y2="63" id="136" stroke="rgb(255,148,91)" stroke-width="1" fill="none" stroke-opacity="0.501961" />
<line x1="0" y1="65" x2="55" y2="28" id="137" stroke="rgb(242,114,66)" stroke-width="1" fill="none" stroke-opacity="0.501961" />
<line x1="151" y1="75" x2="177" y2="21" id="138" stroke="rgb(218,115,66)" stroke-width="1" fill="none" stroke-opacity="0.501961" />
<line x1="219" y1="156" x2="252" y2="156" id="139" stroke="rgb(255,143,30)" stroke-width="1" fill="none" stroke-opacity="0.501961" />
<line x1="39" y1="74" x2="28" y2="102" id="140" stroke="rgb(255,145,98)" stroke-width="1" fill="none" stroke-opacity="0.501961" />
<line x1="163" y1="90" x2="34" y2="114" id="141" stroke="rgb(0,13,29)" stroke-width="1" fill="none" stroke-opacity="0.501961" />
<line x1="59" y1="146" x2="192" y2="148" id="142" stroke="rgb(0,4,16)" stroke-width="1" fill="none" stroke-opacity="0.501961" />
</svg>